<?xml version="1.0" encoding="utf-8"?>
<!-- Generator: Adobe Illustrator 21.0.2, SVG Export Plug-In . SVG Version: 6.00 Build 0)  -->
<svg version="1.1" id="Layer_1" xmlns="http://www.w3.org/2000/svg" xmlns:xlink="http://www.w3.org/1999/xlink" x="0px" y="0px"
	 width="32px" height="24px" viewBox="0 0 32 24" style="enable-background:new 0 0 32 24;" xml:space="preserve">
<style type="text/css">
	.st0{clip-path:url(#SVGID_2_);}
	.st1{clip-path:url(#SVGID_4_);fill:#FFFFFF;}
	.st2{clip-path:url(#SVGID_6_);}
	.st3{clip-path:url(#SVGID_8_);fill:#FFFFFF;}
	.st4{clip-path:url(#SVGID_10_);}
	.st5{clip-path:url(#SVGID_12_);fill:#FFFFFF;}
	.st6{clip-path:url(#SVGID_14_);}
	.st7{clip-path:url(#SVGID_16_);fill:#FFFFFF;}
	.st8{clip-path:url(#SVGID_18_);}
	.st9{clip-path:url(#SVGID_20_);fill:#FFFFFF;}
	.st10{clip-path:url(#SVGID_22_);}
	.st11{clip-path:url(#SVGID_24_);fill:#FFFFFF;}
	.st12{clip-path:url(#SVGID_26_);}
	.st13{opacity:0.3;clip-path:url(#SVGID_28_);fill:none;stroke:#FFFFFF;stroke-width:2;stroke-miterlimit:10;}
	.st14{clip-path:url(#SVGID_30_);}
	.st15{clip-path:url(#SVGID_32_);fill:#FFFFFF;}
	.st16{clip-path:url(#SVGID_34_);}
	.st17{opacity:0.3;clip-path:url(#SVGID_36_);fill:none;stroke:#FFFFFF;stroke-width:2;stroke-miterlimit:10;}
	.st18{clip-path:url(#SVGID_38_);}
	.st19{clip-path:url(#SVGID_40_);fill:#FFFFFF;}
	.st20{fill-rule:evenodd;clip-rule:evenodd;fill:#FFFFFF;}
</style>
<g>
	<defs>
		<polygon id="SVGID_1_" points="427,-2034.2 454.9,-2034.2 445.7,-2043.6 447.1,-2045 459,-2032.8 457.6,-2031.4 457.5,-2031.5 
			447.3,-2021 445.9,-2022.4 455.4,-2032.1 427,-2032.1 		"/>
	</defs>
	<clipPath id="SVGID_2_">
		<use xlink:href="#SVGID_1_"  style="overflow:visible;"/>
	</clipPath>
	<g class="st0">
		<defs>
			<rect id="SVGID_3_" x="-610" y="-2383" width="1200" height="4790"/>
		</defs>
		<clipPath id="SVGID_4_">
			<use xlink:href="#SVGID_3_"  style="overflow:visible;"/>
		</clipPath>
		<rect x="422" y="-2050" class="st1" width="42" height="34"/>
	</g>
</g>
<g>
	<defs>
		<polygon id="SVGID_5_" points="427,-2034.2 454.9,-2034.2 445.7,-2043.6 447.1,-2045 459,-2032.8 457.6,-2031.4 457.5,-2031.5 
			447.3,-2021 445.9,-2022.4 455.4,-2032.1 427,-2032.1 		"/>
	</defs>
	<clipPath id="SVGID_6_">
		<use xlink:href="#SVGID_5_"  style="overflow:visible;"/>
	</clipPath>
	<g class="st2">
		<defs>
			<rect id="SVGID_7_" x="-610" y="-2383" width="1200" height="4790"/>
		</defs>
		<clipPath id="SVGID_8_">
			<use xlink:href="#SVGID_7_"  style="overflow:visible;"/>
		</clipPath>
		<rect x="422" y="-2050" class="st3" width="42" height="34"/>
	</g>
</g>
<g>
	<defs>
		<polygon id="SVGID_9_" points="427,-2034.2 454.9,-2034.2 445.7,-2043.6 447.1,-2045 459,-2032.8 457.6,-2031.4 457.5,-2031.5 
			447.3,-2021 445.9,-2022.4 455.4,-2032.1 427,-2032.1 		"/>
	</defs>
	<clipPath id="SVGID_10_">
		<use xlink:href="#SVGID_9_"  style="overflow:visible;"/>
	</clipPath>
	<g class="st4">
		<defs>
			<rect id="SVGID_11_" x="-610" y="-2383" width="1200" height="4790"/>
		</defs>
		<clipPath id="SVGID_12_">
			<use xlink:href="#SVGID_11_"  style="overflow:visible;"/>
		</clipPath>
		<rect x="422" y="-2050" class="st5" width="42" height="34"/>
	</g>
</g>
<g>
	<defs>
		<polygon id="SVGID_13_" points="427,-2034.2 454.9,-2034.2 445.7,-2043.6 447.1,-2045 459,-2032.8 457.6,-2031.4 457.5,-2031.5 
			447.3,-2021 445.9,-2022.4 455.4,-2032.1 427,-2032.1 		"/>
	</defs>
	<clipPath id="SVGID_14_">
		<use xlink:href="#SVGID_13_"  style="overflow:visible;"/>
	</clipPath>
	<g class="st6">
		<defs>
			<rect id="SVGID_15_" x="-610" y="-2383" width="1200" height="4790"/>
		</defs>
		<clipPath id="SVGID_16_">
			<use xlink:href="#SVGID_15_"  style="overflow:visible;"/>
		</clipPath>
		<rect x="422" y="-2050" class="st7" width="42" height="34"/>
	</g>
</g>
<g>
	<defs>
		<polygon id="SVGID_17_" points="427,-2034.2 454.9,-2034.2 445.7,-2043.6 447.1,-2045 459,-2032.8 457.6,-2031.4 457.5,-2031.5 
			447.3,-2021 445.9,-2022.4 455.4,-2032.1 427,-2032.1 		"/>
	</defs>
	<clipPath id="SVGID_18_">
		<use xlink:href="#SVGID_17_"  style="overflow:visible;"/>
	</clipPath>
	<g class="st8">
		<defs>
			<rect id="SVGID_19_" x="-610" y="-2383" width="1200" height="4790"/>
		</defs>
		<clipPath id="SVGID_20_">
			<use xlink:href="#SVGID_19_"  style="overflow:visible;"/>
		</clipPath>
		<rect x="422" y="-2050" class="st9" width="42" height="34"/>
	</g>
</g>
<g>
	<defs>
		<polygon id="SVGID_21_" points="427,-2034.2 454.9,-2034.2 445.7,-2043.6 447.1,-2045 459,-2032.8 457.6,-2031.4 457.5,-2031.5 
			447.3,-2021 445.9,-2022.4 455.4,-2032.1 427,-2032.1 		"/>
	</defs>
	<clipPath id="SVGID_22_">
		<use xlink:href="#SVGID_21_"  style="overflow:visible;"/>
	</clipPath>
	<g class="st10">
		<defs>
			<rect id="SVGID_23_" x="-610" y="-2383" width="1200" height="4790"/>
		</defs>
		<clipPath id="SVGID_24_">
			<use xlink:href="#SVGID_23_"  style="overflow:visible;"/>
		</clipPath>
		<rect x="422" y="-2050" class="st11" width="42" height="34"/>
	</g>
</g>
<g>
	<defs>
		<circle id="SVGID_25_" cx="444" cy="-2034" r="36"/>
	</defs>
	<clipPath id="SVGID_26_">
		<use xlink:href="#SVGID_25_"  style="overflow:visible;"/>
	</clipPath>
	<g class="st12">
		<defs>
			<rect id="SVGID_27_" x="-610" y="-2383" width="1200" height="4790"/>
		</defs>
		<clipPath id="SVGID_28_">
			<use xlink:href="#SVGID_27_"  style="overflow:visible;"/>
		</clipPath>
		<circle class="st13" cx="444" cy="-2034" r="36"/>
	</g>
</g>
<g>
	<defs>
		<polygon id="SVGID_29_" points="427,-2034.2 454.9,-2034.2 445.7,-2043.6 447.1,-2045 459,-2032.8 457.6,-2031.4 457.5,-2031.5 
			447.3,-2021 445.9,-2022.4 455.4,-2032.1 427,-2032.1 		"/>
	</defs>
	<clipPath id="SVGID_30_">
		<use xlink:href="#SVGID_29_"  style="overflow:visible;"/>
	</clipPath>
	<g class="st14">
		<defs>
			<rect id="SVGID_31_" x="-610" y="-2383" width="1200" height="4790"/>
		</defs>
		<clipPath id="SVGID_32_">
			<use xlink:href="#SVGID_31_"  style="overflow:visible;"/>
		</clipPath>
		<rect x="422" y="-2050" class="st15" width="42" height="34"/>
	</g>
</g>
<g>
	<defs>
		<circle id="SVGID_33_" cx="444" cy="-2034" r="36"/>
	</defs>
	<clipPath id="SVGID_34_">
		<use xlink:href="#SVGID_33_"  style="overflow:visible;"/>
	</clipPath>
	<g class="st16">
		<defs>
			<rect id="SVGID_35_" x="-610" y="-2383" width="1200" height="4790"/>
		</defs>
		<clipPath id="SVGID_36_">
			<use xlink:href="#SVGID_35_"  style="overflow:visible;"/>
		</clipPath>
		<circle class="st17" cx="444" cy="-2034" r="36"/>
	</g>
</g>
<g>
	<defs>
		<polygon id="SVGID_37_" points="427,-2034.2 454.9,-2034.2 445.7,-2043.6 447.1,-2045 459,-2032.8 457.6,-2031.4 457.5,-2031.5 
			447.3,-2021 445.9,-2022.4 455.4,-2032.1 427,-2032.1 		"/>
	</defs>
	<clipPath id="SVGID_38_">
		<use xlink:href="#SVGID_37_"  style="overflow:visible;"/>
	</clipPath>
	<g class="st18">
		<defs>
			<rect id="SVGID_39_" x="-610" y="-2383" width="1200" height="4790"/>
		</defs>
		<clipPath id="SVGID_40_">
			<use xlink:href="#SVGID_39_"  style="overflow:visible;"/>
		</clipPath>
		<rect x="422" y="-2050" class="st19" width="42" height="34"/>
	</g>
</g>
<polygon class="st20" points="0,10.8 27.9,10.8 18.7,1.4 20.1,0 32,12.2 30.6,13.6 30.5,13.5 20.3,24 18.9,22.6 28.4,12.9 0,12.9 
	"/>
</svg>
