<svg id="Layer_1" xmlns="http://www.w3.org/2000/svg" xmlns:xlink="http://www.w3.org/1999/xlink" width="32" height="24" viewBox="0 0 32 24"><style>.st0{clip-path:url(#SVGID_2_)}.st1{clip-path:url(#SVGID_4_);fill:#fff}.st2{clip-path:url(#SVGID_6_)}.st3{clip-path:url(#SVGID_8_);fill:#fff}.st4{clip-path:url(#SVGID_10_)}.st5{clip-path:url(#SVGID_12_);fill:#fff}.st6{clip-path:url(#SVGID_14_)}.st7{clip-path:url(#SVGID_16_);fill:#fff}.st8{clip-path:url(#SVGID_18_)}.st9{clip-path:url(#SVGID_20_);fill:#fff}.st10{clip-path:url(#SVGID_22_)}.st11{clip-path:url(#SVGID_24_);fill:#fff}.st12{clip-path:url(#SVGID_26_)}.st13{opacity:.3;clip-path:url(#SVGID_28_);fill:none;stroke:#fff;stroke-width:2;stroke-miterlimit:10}.st14{clip-path:url(#SVGID_30_)}.st15{clip-path:url(#SVGID_32_);fill:#fff}.st16{clip-path:url(#SVGID_34_)}.st17{opacity:.3;clip-path:url(#SVGID_36_);fill:none;stroke:#fff;stroke-width:2;stroke-miterlimit:10}.st18{clip-path:url(#SVGID_38_)}.st19{clip-path:url(#SVGID_40_);fill:#fff}.st20{fill-rule:evenodd;clip-rule:evenodd;fill:#fff}</style><defs><path id="SVGID_1_" d="M427-2034.2h27.9l-9.2-9.4 1.4-1.4 11.9 12.2-1.4 1.4-.1-.1-10.2 10.5-1.4-1.4 9.5-9.7H427z"/></defs><clipPath id="SVGID_2_"><use xlink:href="#SVGID_1_" overflow="visible"/></clipPath><g class="st0"><defs><path id="SVGID_3_" d="M-610-2383H590v4790H-610z"/></defs><clipPath id="SVGID_4_"><use xlink:href="#SVGID_3_" overflow="visible"/></clipPath><path class="st1" d="M422-2050h42v34h-42z"/></g><defs><path id="SVGID_5_" d="M427-2034.2h27.9l-9.2-9.4 1.4-1.4 11.9 12.2-1.4 1.4-.1-.1-10.2 10.5-1.4-1.4 9.5-9.7H427z"/></defs><clipPath id="SVGID_6_"><use xlink:href="#SVGID_5_" overflow="visible"/></clipPath><g class="st2"><defs><path id="SVGID_7_" d="M-610-2383H590v4790H-610z"/></defs><clipPath id="SVGID_8_"><use xlink:href="#SVGID_7_" overflow="visible"/></clipPath><path class="st3" d="M422-2050h42v34h-42z"/></g><defs><path id="SVGID_9_" d="M427-2034.2h27.9l-9.2-9.4 1.4-1.4 11.9 12.2-1.4 1.4-.1-.1-10.2 10.5-1.4-1.4 9.5-9.7H427z"/></defs><clipPath id="SVGID_10_"><use xlink:href="#SVGID_9_" overflow="visible"/></clipPath><g class="st4"><defs><path id="SVGID_11_" d="M-610-2383H590v4790H-610z"/></defs><clipPath id="SVGID_12_"><use xlink:href="#SVGID_11_" overflow="visible"/></clipPath><path class="st5" d="M422-2050h42v34h-42z"/></g><defs><path id="SVGID_13_" d="M427-2034.2h27.9l-9.2-9.4 1.4-1.4 11.9 12.2-1.4 1.4-.1-.1-10.2 10.5-1.4-1.4 9.5-9.7H427z"/></defs><clipPath id="SVGID_14_"><use xlink:href="#SVGID_13_" overflow="visible"/></clipPath><g class="st6"><defs><path id="SVGID_15_" d="M-610-2383H590v4790H-610z"/></defs><clipPath id="SVGID_16_"><use xlink:href="#SVGID_15_" overflow="visible"/></clipPath><path class="st7" d="M422-2050h42v34h-42z"/></g><defs><path id="SVGID_17_" d="M427-2034.2h27.9l-9.2-9.4 1.4-1.4 11.9 12.2-1.4 1.4-.1-.1-10.2 10.5-1.4-1.4 9.5-9.7H427z"/></defs><clipPath id="SVGID_18_"><use xlink:href="#SVGID_17_" overflow="visible"/></clipPath><g class="st8"><defs><path id="SVGID_19_" d="M-610-2383H590v4790H-610z"/></defs><clipPath id="SVGID_20_"><use xlink:href="#SVGID_19_" overflow="visible"/></clipPath><path class="st9" d="M422-2050h42v34h-42z"/></g><defs><path id="SVGID_21_" d="M427-2034.2h27.9l-9.2-9.4 1.4-1.4 11.9 12.2-1.4 1.4-.1-.1-10.2 10.5-1.4-1.4 9.5-9.7H427z"/></defs><clipPath id="SVGID_22_"><use xlink:href="#SVGID_21_" overflow="visible"/></clipPath><g class="st10"><defs><path id="SVGID_23_" d="M-610-2383H590v4790H-610z"/></defs><clipPath id="SVGID_24_"><use xlink:href="#SVGID_23_" overflow="visible"/></clipPath><path class="st11" d="M422-2050h42v34h-42z"/></g><defs><circle id="SVGID_25_" cx="444" cy="-2034" r="36"/></defs><clipPath id="SVGID_26_"><use xlink:href="#SVGID_25_" overflow="visible"/></clipPath><g class="st12"><defs><path id="SVGID_27_" d="M-610-2383H590v4790H-610z"/></defs><clipPath id="SVGID_28_"><use xlink:href="#SVGID_27_" overflow="visible"/></clipPath><circle class="st13" cx="444" cy="-2034" r="36"/></g><defs><path id="SVGID_29_" d="M427-2034.2h27.9l-9.2-9.4 1.4-1.4 11.9 12.2-1.4 1.4-.1-.1-10.2 10.5-1.4-1.4 9.5-9.7H427z"/></defs><clipPath id="SVGID_30_"><use xlink:href="#SVGID_29_" overflow="visible"/></clipPath><g class="st14"><defs><path id="SVGID_31_" d="M-610-2383H590v4790H-610z"/></defs><clipPath id="SVGID_32_"><use xlink:href="#SVGID_31_" overflow="visible"/></clipPath><path class="st15" d="M422-2050h42v34h-42z"/></g><defs><circle id="SVGID_33_" cx="444" cy="-2034" r="36"/></defs><clipPath id="SVGID_34_"><use xlink:href="#SVGID_33_" overflow="visible"/></clipPath><g class="st16"><defs><path id="SVGID_35_" d="M-610-2383H590v4790H-610z"/></defs><clipPath id="SVGID_36_"><use xlink:href="#SVGID_35_" overflow="visible"/></clipPath><circle class="st17" cx="444" cy="-2034" r="36"/></g><defs><path id="SVGID_37_" d="M427-2034.2h27.9l-9.2-9.4 1.4-1.4 11.9 12.2-1.4 1.4-.1-.1-10.2 10.5-1.4-1.4 9.5-9.7H427z"/></defs><clipPath id="SVGID_38_"><use xlink:href="#SVGID_37_" overflow="visible"/></clipPath><g class="st18"><defs><path id="SVGID_39_" d="M-610-2383H590v4790H-610z"/></defs><clipPath id="SVGID_40_"><use xlink:href="#SVGID_39_" overflow="visible"/></clipPath><path class="st19" d="M422-2050h42v34h-42z"/></g><path class="st20" d="M0 10.8h27.9l-9.2-9.4L20.1 0 32 12.2l-1.4 1.4-.1-.1L20.3 24l-1.4-1.4 9.5-9.7H0z"/></svg>